<svg width="70" height="17" viewBox="0 0 70 17" fill="none" xmlns="http://www.w3.org/2000/svg">
<g clip-path="url(#clip0_450_52128)">
<mask id="mask0_450_52128" style="mask-type:luminance" maskUnits="userSpaceOnUse" x="0" y="0" width="70" height="17">
<path d="M70 0H0V16.7647H70V0Z" fill="white"/>
</mask>
<g mask="url(#mask0_450_52128)">
<path d="M24.7171 4.92479C24.6983 4.88071 24.7171 4.86182 24.7675 4.86182H26.09C26.09 4.86182 26.1466 4.88071 26.1655 4.92479L27.7525 9.89968C27.784 9.96899 27.8532 9.96899 27.8848 9.89968L29.4716 4.92479C29.4905 4.88071 29.5157 4.86182 29.5472 4.86182H30.8445C30.8949 4.86182 30.9138 4.88071 30.9074 4.92479L28.5522 11.9274C28.1177 13.2184 27.7147 13.7285 26.5434 13.7285H24.8054C24.7612 13.7285 24.7423 13.7033 24.7423 13.6592V12.5887C24.7423 12.5446 24.7612 12.5258 24.8054 12.5258H26.2789C26.8205 12.5258 27.0031 12.2801 27.0031 11.9086C27.0031 11.6566 26.8898 11.3544 26.7953 11.0332L24.7298 4.91219L24.7171 4.92479Z" fill="black"/>
<path d="M33.8988 4.73584C35.8007 4.73584 36.9719 6.08977 36.9719 8.04825C36.9719 8.23717 36.9531 8.37571 36.9215 8.48907C36.9027 8.53315 36.8838 8.55205 36.8586 8.55205H32.3056C32.2615 8.55205 32.2426 8.57094 32.2426 8.61502C32.2426 9.42108 32.8975 10.139 33.8925 10.139C34.6105 10.139 35.0702 9.87446 35.3095 9.40849C35.3283 9.36441 35.3535 9.34552 35.3976 9.34552H36.6949C36.739 9.34552 36.7578 9.36441 36.7578 9.39589V9.40849C36.6067 10.0319 36.2729 10.5105 35.7503 10.8505C35.2276 11.1906 34.6105 11.3606 33.8988 11.3606C32.0222 11.3606 30.832 10.0194 30.832 8.05456C30.832 6.08977 32.0033 4.74213 33.8988 4.74213V4.73584ZM32.3119 7.46259H35.448C35.492 7.46259 35.511 7.43741 35.511 7.39333C35.511 6.78878 35.0387 5.97012 33.8988 5.97012C32.759 5.97012 32.2489 6.86435 32.2489 7.39333C32.2489 7.43741 32.2678 7.4563 32.3119 7.46259Z" fill="black"/>
<path d="M37.8096 2.43114C37.8096 2.38706 37.8348 2.36816 37.8788 2.36816H39.0942C39.1383 2.36816 39.1572 2.38706 39.1572 2.43114V11.1781C39.1572 11.2223 39.1383 11.2412 39.0942 11.2412H37.8788C37.8348 11.2412 37.8158 11.2223 37.8096 11.1781V2.43114Z" fill="black"/>
<path d="M40.3916 2.43114C40.3916 2.38706 40.4168 2.36816 40.4609 2.36816H41.6763C41.7203 2.36816 41.7392 2.38706 41.7392 2.43114V11.1781C41.7392 11.2223 41.7203 11.2412 41.6763 11.2412H40.4609C40.4168 11.2412 40.3979 11.2223 40.3916 11.1781V2.43114Z" fill="black"/>
<path d="M45.7188 4.73584C47.6836 4.73584 48.8549 6.08977 48.8549 8.04825C48.8549 10.0067 47.6836 11.3544 45.7188 11.3544C43.754 11.3544 42.6016 10.013 42.6016 8.04825C42.6016 6.08348 43.754 4.73584 45.7188 4.73584ZM44.4216 9.57221C44.7238 9.95632 45.1583 10.1452 45.7188 10.1452C46.2793 10.1452 46.739 9.95632 47.0413 9.57221C47.3435 9.18807 47.4947 8.68429 47.4947 8.05456C47.4947 7.42481 47.3498 6.91473 47.0475 6.54318C46.7453 6.17163 46.3045 5.97642 45.7188 5.97642C45.1331 5.97642 44.7238 6.16534 44.4216 6.54318C44.1129 6.92103 43.9619 7.42481 43.9619 8.05456C43.9619 8.68429 44.1129 9.19438 44.4216 9.57221Z" fill="black"/>
<path d="M48.9239 4.93738C48.905 4.887 48.9239 4.86182 48.9931 4.86182H50.2337C50.2337 4.86182 50.2966 4.887 50.3156 4.93738L51.361 9.89968C51.3799 9.96899 51.4554 9.96899 51.4869 9.89968L52.696 4.93738C52.7149 4.887 52.7464 4.86182 52.7967 4.86182H54.5222C54.5726 4.86182 54.6041 4.887 54.623 4.93738L55.832 9.89968C55.851 9.95007 55.9266 9.98154 55.958 9.89968L57.0034 4.93738C57.0034 4.887 57.0412 4.86182 57.0915 4.86182H58.3132C58.3699 4.86182 58.3951 4.887 58.3888 4.93738L56.9089 11.1717C56.8901 11.2159 56.8649 11.2348 56.827 11.2348H54.9505C54.9505 11.2348 54.9064 11.2159 54.8874 11.1717L53.7162 6.22204C53.6972 6.15277 53.6028 6.15277 53.5839 6.22204L52.4252 11.1717C52.4064 11.2159 52.3812 11.2348 52.3433 11.2348H50.4793C50.4793 11.2348 50.4226 11.2159 50.4037 11.1717L48.9175 4.93738H48.9239Z" fill="black"/>
<path d="M58.6221 9.44627C58.6221 9.40219 58.641 9.3833 58.6851 9.3833H60.3917C60.4357 9.3833 60.4546 9.40219 60.4546 9.44627V11.1718C60.4546 11.2158 60.4357 11.2347 60.3917 11.2347H58.6851C58.641 11.2347 58.6221 11.2158 58.6221 11.1718V9.44627Z" fill="black"/>
<path d="M64.0945 7.36809H65.3918C65.6626 7.36809 65.7886 7.16658 65.7886 7.01544C65.7886 6.625 65.6752 5.97008 64.3213 5.97008C63.8112 5.97008 63.4459 6.07084 63.2318 6.25976C63.0177 6.44868 62.8981 6.68168 62.8918 6.95246C62.8918 6.99655 62.8729 7.01544 62.8288 7.01544H61.6071C61.5631 7.01544 61.5441 6.99655 61.5441 6.95246C61.5441 5.47259 62.854 4.72949 64.3149 4.72949C65.1903 4.72949 65.8767 4.91841 66.3805 5.30885C66.8843 5.69929 67.1362 6.28494 67.1362 7.07212V9.65404C67.1362 9.89331 67.2999 10.0697 67.5707 10.0697H67.8478C67.8919 10.0697 67.9108 10.0886 67.9108 10.1326V11.1654C67.9108 11.2095 67.8919 11.2284 67.8478 11.2284H67.344C66.6387 11.2284 66.2797 11.0268 66.0593 10.6364C66.0279 10.5861 65.99 10.5798 65.946 10.6238C65.7886 10.7875 65.5303 10.9576 65.1714 11.1087C64.8125 11.2661 64.3653 11.348 63.83 11.348C62.9799 11.348 62.3565 11.1591 61.9409 10.7812C61.5252 10.4034 61.3174 9.9185 61.3174 9.33917C61.3174 8.23084 62.2368 7.3618 64.0757 7.3618L64.0945 7.36809ZM63.8427 10.1389C65.2595 10.1389 65.7948 9.32028 65.7948 8.61497V8.52681C65.7948 8.48273 65.776 8.46384 65.7319 8.45754H64.1324C62.8918 8.45754 62.6902 8.95503 62.6902 9.34547C62.6902 9.69812 62.961 10.1389 63.849 10.1389H63.8427Z" fill="black"/>
<path d="M68.4141 2.64549C68.4141 2.60141 68.433 2.58252 68.477 2.58252H69.8688C69.9128 2.58252 69.9317 2.60141 69.9317 2.64549V4.0624C69.9317 4.10648 69.9128 4.12537 69.8688 4.12537H68.477C68.433 4.12537 68.4141 4.10648 68.4141 4.0624V2.64549ZM68.477 4.92514C68.477 4.88106 68.5022 4.86217 68.5463 4.86217H69.7617C69.8057 4.86217 69.8247 4.88106 69.8247 4.92514V11.1721C69.8247 11.2162 69.8057 11.2351 69.7617 11.2351H68.5463C68.5022 11.2351 68.4833 11.2162 68.477 11.1721V4.92514Z" fill="black"/>
<mask id="mask1_450_52128" style="mask-type:luminance" maskUnits="userSpaceOnUse" x="0" y="0" width="21" height="17">
<path d="M20.3922 0.0566406H0V16.7078H20.3922V0.0566406Z" fill="white"/>
</mask>
<g mask="url(#mask1_450_52128)">
<path d="M10.5313 16.7078H4.49886C4.09048 16.7078 3.83495 16.2678 4.03794 15.9157L12.7904 0.656082C13.003 0.284999 13.3993 0.0566406 13.8269 0.0566406H19.8592C20.2676 0.0566406 20.5232 0.496707 20.3201 0.84876L11.5677 16.1083C11.3551 16.4794 10.9587 16.7078 10.5313 16.7078Z" fill="#F2CB67"/>
<path d="M0 1.00814V5.05198C0 5.57769 0.427474 6.00348 0.955248 6.00348H5.9703L8.35842 8.38222V1.00814C8.35842 0.482434 7.93095 0.0566406 7.40318 0.0566406H0.955248C0.427474 0.0566406 0 0.482434 0 1.00814Z" fill="#F2CB67"/>
</g>
</g>
</g>
<defs>
<clipPath id="clip0_450_52128">
<rect width="70" height="16.7647" fill="white"/>
</clipPath>
</defs>
</svg>
